<svg width="954" height="770" viewBox="0 0 954 770" fill="none" xmlns="http://www.w3.org/2000/svg">
<path d="M724.675 731.388C747.24 731.388 765.533 714.373 765.533 693.384C765.533 672.396 747.24 655.381 724.675 655.381C702.11 655.381 683.817 672.396 683.817 693.384C683.817 714.373 702.11 731.388 724.675 731.388Z" fill="#343148"/>
<path d="M710.542 344.516C720.911 344.516 729.318 335.093 729.318 323.468C729.318 311.844 720.911 302.42 710.542 302.42C700.172 302.42 691.766 311.844 691.766 323.468C691.766 335.093 700.172 344.516 710.542 344.516Z" fill="#343148"/>
<path d="M708.681 331.497C708.258 331.498 707.847 331.345 707.509 331.061L707.488 331.043L703.076 327.256C702.871 327.081 702.698 326.862 702.569 326.612C702.439 326.362 702.355 326.086 702.321 325.799C702.287 325.513 702.303 325.222 702.37 324.942C702.436 324.663 702.551 324.401 702.708 324.172C702.865 323.942 703.06 323.75 703.284 323.605C703.507 323.461 703.754 323.367 704.009 323.329C704.265 323.292 704.525 323.311 704.774 323.386C705.023 323.461 705.256 323.591 705.46 323.767V323.767C706.985 325.078 709.311 324.773 710.446 323.113L715.072 316.35C715.229 316.121 715.424 315.928 715.647 315.784C715.87 315.64 716.116 315.546 716.371 315.508C716.627 315.47 716.886 315.489 717.135 315.564C717.383 315.639 717.617 315.767 717.821 315.943C718.233 316.298 718.504 316.823 718.572 317.4C718.64 317.978 718.501 318.562 718.185 319.025L710.24 330.64C710.057 330.907 709.82 331.124 709.55 331.272C709.279 331.421 708.982 331.498 708.681 331.497Z" fill="white"/>
<path d="M710.542 406.04C720.911 406.04 729.318 396.616 729.318 384.992C729.318 373.367 720.911 363.943 710.542 363.943C700.172 363.943 691.766 373.367 691.766 384.992C691.766 396.616 700.172 406.04 710.542 406.04Z" fill="#343148"/>
<path d="M708.681 393.02C708.258 393.021 707.847 392.867 707.509 392.583L707.488 392.566L703.076 388.778C702.871 388.603 702.698 388.384 702.569 388.134C702.439 387.885 702.355 387.608 702.321 387.322C702.287 387.035 702.303 386.744 702.37 386.465C702.436 386.186 702.551 385.924 702.708 385.694C702.865 385.465 703.06 385.272 703.284 385.128C703.507 384.983 703.754 384.889 704.009 384.852C704.265 384.814 704.525 384.834 704.774 384.909C705.023 384.984 705.256 385.113 705.46 385.29V385.29C706.985 386.6 709.311 386.295 710.446 384.636L715.072 377.872C715.229 377.643 715.424 377.451 715.647 377.307C715.87 377.162 716.116 377.068 716.371 377.031C716.627 376.993 716.886 377.012 717.135 377.086C717.383 377.161 717.617 377.29 717.821 377.465C718.233 377.82 718.504 378.345 718.572 378.923C718.64 379.5 718.501 380.085 718.185 380.547L710.24 392.162C710.057 392.43 709.82 392.646 709.55 392.795C709.279 392.944 708.982 393.021 708.681 393.02Z" fill="white"/>
<path d="M720.653 477.281C731.023 477.281 739.429 467.857 739.429 456.233C739.429 444.608 731.023 435.185 720.653 435.185C710.283 435.185 701.877 444.608 701.877 456.233C701.877 467.857 710.283 477.281 720.653 477.281Z" fill="#343148"/>
<path d="M718.791 464.26C718.369 464.261 717.957 464.108 717.619 463.824L717.599 463.806L713.186 460.019C712.981 459.843 712.809 459.625 712.679 459.375C712.55 459.125 712.465 458.849 712.431 458.562C712.397 458.276 712.414 457.984 712.48 457.705C712.547 457.426 712.662 457.164 712.818 456.934C712.975 456.705 713.171 456.512 713.394 456.368C713.617 456.223 713.864 456.13 714.12 456.092C714.375 456.054 714.635 456.074 714.884 456.149C715.133 456.224 715.366 456.354 715.571 456.53V456.53C717.096 457.841 719.421 457.536 720.556 455.876L725.183 449.112C725.339 448.883 725.535 448.691 725.758 448.547C725.98 448.402 726.227 448.309 726.482 448.271C726.737 448.233 726.996 448.252 727.245 448.327C727.494 448.401 727.727 448.53 727.931 448.706C728.343 449.061 728.614 449.585 728.682 450.163C728.75 450.741 728.611 451.325 728.295 451.788L720.351 463.402C720.167 463.67 719.931 463.886 719.66 464.035C719.39 464.184 719.092 464.261 718.791 464.26Z" fill="white"/>
<path d="M907.369 618.008L907.419 618.01H907.42C907.479 618.012 909.997 618.116 913.663 616.649C917.335 615.181 922.267 612.096 927.08 605.548C934.278 595.757 941.109 578.356 942.755 547.508C944.4 516.671 940.854 472.576 927.476 409.592C891.318 239.345 921.472 88.9846 936.118 32.2163M907.369 618.008L922.414 5.00001V2.50001H922.412L574.287 2.50001L574.283 2.50001C570.649 2.50547 567.082 3.47231 563.874 5.30307C560.668 7.1326 557.92 9.76737 555.836 12.9704L555.833 12.9739C549.319 23.0189 540.636 41.7664 535.149 74.847C534.779 77.0787 536.239 79.2285 538.477 79.6792C540.851 80.1572 543.098 78.5444 543.486 76.2127C548.768 44.4723 556.959 26.9801 562.807 17.9618C564.162 15.8811 565.917 14.2157 567.911 13.0778C569.904 11.941 572.087 11.3566 574.289 11.353L922.414 11.353L922.417 11.353C924.577 11.3501 926.721 11.9096 928.684 13.005C930.649 14.1015 932.387 15.711 933.743 17.7287C935.1 19.7471 936.032 22.1104 936.448 24.6344C936.863 27.1576 936.75 29.7551 936.118 32.2163M907.369 618.008H907.32H885.851C883.406 618.008 881.425 619.99 881.425 622.434C881.425 624.879 883.407 626.861 885.852 626.861L907.17 626.858L907.369 618.008ZM936.118 32.2163L938.534 32.8396L936.117 32.2187C936.117 32.2179 936.117 32.2171 936.118 32.2163Z" fill="#343148" stroke="#343148" stroke-width="5"/>
<path d="M844.638 688.325L844.681 688.327C844.684 688.327 854.809 688.851 864.355 675.866C871.553 666.074 878.384 648.674 880.029 617.825C881.675 586.988 878.128 542.893 864.751 479.909C828.592 309.663 858.747 159.302 873.392 102.534M844.638 688.325L859.688 72.8174H859.687L511.561 72.8174L511.558 72.8174C507.924 72.8229 504.356 73.7897 501.149 75.6205C497.943 77.45 495.195 80.0848 493.11 83.2878L493.108 83.2913C486.594 93.3363 477.91 112.084 472.423 145.164C472.053 147.396 473.514 149.546 475.752 149.997C478.126 150.475 480.373 148.862 480.761 146.53C486.043 114.789 494.234 97.2966 500.082 88.2785C501.437 86.1981 503.192 84.533 505.186 83.3951C507.178 82.2584 509.362 81.674 511.563 81.6704L859.688 81.6704L859.692 81.6704C861.852 81.6675 863.996 82.227 865.959 83.3224C867.924 84.419 869.662 86.0284 871.018 88.0461C872.375 90.0646 873.306 92.4278 873.722 94.9518C874.138 97.475 874.024 100.072 873.392 102.534M844.638 688.325H844.594M844.638 688.325H844.594M873.392 102.534L875.809 103.157L873.392 102.536C873.392 102.535 873.392 102.534 873.392 102.534ZM844.594 688.325H823.126C820.681 688.325 818.699 690.307 818.699 692.752C818.699 695.197 820.682 697.178 823.126 697.178L844.446 697.175C844.552 697.18 844.695 697.184 844.87 697.184C847.644 697.184 859.938 696.257 870.916 681.441L868.907 679.953L844.594 688.325Z" fill="#343148" stroke="#343148" stroke-width="5"/>
<path d="M818.814 175.175L818.815 175.171C819.767 171.46 819.936 167.557 819.31 163.765C818.685 159.973 817.28 156.378 815.189 153.266C813.098 150.153 810.372 147.601 807.209 145.832C804.044 144.063 800.537 143.133 796.967 143.133L448.833 143.133L448.83 143.133C445.197 143.137 441.631 144.102 438.424 145.932C435.219 147.76 432.472 150.393 430.388 153.595L430.385 153.598C415.828 176.039 386.765 248.639 419.372 447.642C436.76 553.806 436.481 626.068 430.824 673.55L430.824 673.551C427.651 700.279 422.764 719.139 418.366 731.793C418.366 731.794 418.365 731.796 418.365 731.798L417.899 733.128C417.898 733.132 417.896 733.136 417.895 733.14C416.86 736.005 416.322 739.057 416.306 742.136C416.27 745.612 416.892 749.064 418.136 752.266C419.379 755.465 421.219 758.353 423.551 760.732C425.076 762.331 426.809 763.681 428.699 764.734C430.267 765.628 431.93 766.312 433.654 766.767C435.412 767.247 437.218 767.488 439.031 767.484H781.707C781.718 767.485 781.729 767.486 781.739 767.486C781.841 767.493 781.979 767.5 782.149 767.5C784.916 767.5 797.218 766.571 808.192 751.755L806.183 750.267L808.192 751.754C816.45 740.602 823.736 721.708 825.591 689.711C827.446 657.706 823.878 612.422 810.26 548.3L807.815 548.819L810.26 548.3C774.511 380.009 804.332 231.27 818.814 175.175ZM801.626 746.179L801.626 746.18C792.081 759.171 781.956 758.648 781.951 758.648L781.913 758.647H781.875H439.026C436.744 758.646 434.481 758.02 432.431 756.8C430.379 755.58 428.595 753.796 427.256 751.58L427.251 751.572L427.246 751.564C426.073 749.655 425.276 747.467 424.923 745.15C424.57 742.834 424.673 740.458 425.221 738.194L425.228 738.166L425.234 738.138C425.374 737.495 425.556 736.866 425.777 736.255L425.783 736.239L425.789 736.223C430.935 721.397 434.75 706.035 437.176 690.365C445.377 640.234 446.865 563.125 427.685 446.137C395.4 249.065 424.078 179.072 437.351 158.589C438.709 156.512 440.465 154.849 442.459 153.712C444.451 152.577 446.635 151.992 448.836 151.986L796.968 151.986L796.97 151.986C799.128 151.985 801.272 152.545 803.233 153.64C805.197 154.737 806.934 156.345 808.289 158.362C809.645 160.379 810.576 162.741 810.992 165.264C811.409 167.785 811.296 170.381 810.665 172.84C796.016 229.612 765.87 379.984 802.033 550.229C815.41 613.209 818.955 657.302 817.308 688.138C815.66 718.986 808.827 736.387 801.626 746.179Z" fill="#343148" stroke="#343148" stroke-width="5"/>
<path d="M642.426 329.466H463.063C459.417 329.466 455.92 327.842 453.342 324.952C450.764 322.062 449.315 318.142 449.315 314.054C449.315 309.967 450.764 306.047 453.342 303.157C455.92 300.266 459.417 298.643 463.063 298.643H642.426C646.072 298.643 649.569 300.266 652.147 303.157C654.726 306.047 656.174 309.967 656.174 314.054C656.174 318.142 654.726 322.062 652.147 324.952C649.569 327.842 646.072 329.466 642.426 329.466Z" fill="#D7C49E"/>
<path d="M642.426 395.848H463.063C459.417 395.848 455.92 394.224 453.342 391.334C450.764 388.444 449.315 384.524 449.315 380.436C449.315 376.349 450.764 372.429 453.342 369.538C455.92 366.648 459.417 365.024 463.063 365.024H642.426C646.072 365.024 649.569 366.648 652.147 369.538C654.726 372.429 656.174 376.349 656.174 380.436C656.174 384.524 654.726 388.444 652.147 391.334C649.569 394.224 646.072 395.848 642.426 395.848Z" fill="#D7C49E"/>
<path d="M656.869 463.852H477.507C473.861 463.852 470.364 462.228 467.785 459.338C465.207 456.448 463.759 452.528 463.759 448.44C463.759 444.353 465.207 440.433 467.785 437.542C470.364 434.652 473.861 433.028 477.507 433.028H656.869C660.516 433.028 664.012 434.652 666.591 437.542C669.169 440.433 670.617 444.353 670.617 448.44C670.617 452.528 669.169 456.448 666.591 459.338C664.012 462.228 660.516 463.852 656.869 463.852Z" fill="#D7C49E"/>
<path d="M666.98 535.092H487.617C483.971 535.092 480.474 533.468 477.896 530.578C475.318 527.688 473.869 523.768 473.869 519.68C473.869 515.593 475.318 511.673 477.896 508.783C480.474 505.892 483.971 504.269 487.617 504.269H666.98C670.626 504.269 674.123 505.892 676.701 508.783C679.279 511.673 680.728 515.593 680.728 519.68C680.728 523.768 679.279 527.688 676.701 530.578C674.123 533.468 670.626 535.092 666.98 535.092Z" fill="#D7C49E"/>
<path d="M667.055 209.798H538.167C536.361 209.8 534.572 209.403 532.902 208.63C531.232 207.856 529.715 206.721 528.437 205.29C527.159 203.858 526.145 202.159 525.453 200.288C524.761 198.417 524.405 196.412 524.405 194.386C524.405 192.361 524.761 190.356 525.453 188.485C526.145 186.614 527.159 184.914 528.437 183.483C529.715 182.052 531.232 180.917 532.902 180.143C534.572 179.37 536.361 178.973 538.167 178.975H667.055C670.702 178.975 674.198 180.598 676.777 183.489C679.355 186.379 680.803 190.299 680.803 194.386C680.803 198.474 679.355 202.394 676.777 205.284C674.198 208.174 670.702 209.798 667.055 209.798Z" fill="#343148"/>
<path d="M738.098 540.727C748.468 540.727 756.874 531.304 756.874 519.679C756.874 508.054 748.468 498.631 738.098 498.631C727.729 498.631 719.322 508.054 719.322 519.679C719.322 531.304 727.729 540.727 738.098 540.727Z" fill="#D7C49E"/>
<path d="M675.646 604.712H496.283C492.637 604.712 489.14 603.088 486.562 600.198C483.984 597.308 482.535 593.388 482.535 589.3C482.535 585.213 483.984 581.293 486.562 578.403C489.14 575.512 492.637 573.889 496.283 573.889H675.646C679.292 573.889 682.789 575.512 685.367 578.403C687.945 581.293 689.394 585.213 689.394 589.3C689.394 593.388 687.945 597.308 685.367 600.198C682.789 603.088 679.292 604.712 675.646 604.712Z" fill="#D7C49E"/>
<path d="M746.763 610.347C757.133 610.347 765.539 600.924 765.539 589.299C765.539 577.675 757.133 568.251 746.763 568.251C736.394 568.251 727.987 577.675 727.987 589.299C727.987 600.924 736.394 610.347 746.763 610.347Z" fill="#D7C49E"/>
<path d="M731.068 717.483V679.983H737.431V717.483H731.068ZM715.499 701.915V695.551H752.999V701.915H715.499Z" fill="white"/>
<path d="M325.725 560.171C359.566 560.171 387 532.951 387 499.374C387 465.797 359.566 438.577 325.725 438.577C291.884 438.577 264.45 465.797 264.45 499.374C264.45 532.951 291.884 560.171 325.725 560.171Z" fill="#343148"/>
<path d="M319.651 522.568C318.272 522.571 316.93 522.128 315.827 521.308L315.759 521.257L301.359 510.318C300.691 509.811 300.131 509.179 299.71 508.457C299.289 507.735 299.016 506.939 298.905 506.112C298.795 505.285 298.849 504.445 299.066 503.64C299.283 502.834 299.658 502.079 300.169 501.417C300.68 500.755 301.318 500.199 302.045 499.782C302.773 499.365 303.576 499.094 304.409 498.984C305.242 498.875 306.089 498.93 306.901 499.145C307.713 499.361 308.474 499.733 309.141 500.241V500.241C314.303 504.168 321.668 503.196 325.634 498.063L340.51 478.815C341.021 478.154 341.658 477.599 342.386 477.182C343.113 476.765 343.916 476.494 344.749 476.385C345.582 476.276 346.428 476.33 347.24 476.546C347.977 476.742 348.673 477.066 349.294 477.505C349.398 477.578 349.418 477.723 349.342 477.825V477.825V477.825C349.42 477.724 349.565 477.705 349.663 477.786C350.906 478.807 351.718 480.257 351.93 481.85C352.151 483.519 351.697 485.206 350.667 486.543L324.74 520.091C324.141 520.864 323.37 521.49 322.487 521.919C321.604 522.349 320.634 522.571 319.651 522.568Z" fill="white"/>
<path d="M324.891 765.268H0.455141C0.334309 765.268 0.218548 765.307 0.133231 765.376C0.0479133 765.444 0 765.537 0 765.634C0 765.731 0.0479133 765.824 0.133231 765.892C0.218548 765.961 0.334309 766 0.455141 766H324.891C325.012 766 325.127 765.961 325.213 765.892C325.298 765.824 325.346 765.731 325.346 765.634C325.346 765.537 325.298 765.444 325.213 765.376C325.127 765.307 325.012 765.268 324.891 765.268Z" fill="#D7C49E"/>
<path d="M176.533 248.309C201.645 248.309 222.002 228.11 222.002 203.194C222.002 178.278 201.645 158.08 176.533 158.08C151.422 158.08 131.064 178.278 131.064 203.194C131.064 228.11 151.422 248.309 176.533 248.309Z" fill="#2F2E41"/>
<path d="M141.042 178.87C148.39 171.579 149.879 161.237 144.368 155.769C138.858 150.302 128.434 151.779 121.086 159.069C113.739 166.36 112.25 176.702 117.76 182.17C123.271 187.637 133.695 186.16 141.042 178.87Z" fill="#2F2E41"/>
<path d="M223.924 164.542C226.986 157.431 221.721 148.383 212.165 144.333C202.609 140.283 192.381 142.765 189.32 149.875C186.258 156.986 191.523 166.034 201.079 170.084C210.634 174.134 220.863 171.653 223.924 164.542Z" fill="#2F2E41"/>
<path d="M303.145 463.659C304.294 461.493 304.95 459.102 305.067 456.657C305.184 454.211 304.759 451.77 303.823 449.505C302.886 447.24 301.46 445.206 299.646 443.547V443.547C296.182 440.38 292.174 437.496 290.156 433.26L236.477 320.592C231.838 310.855 219.573 307.603 210.72 313.763V313.763C203.279 318.94 201.032 328.947 205.544 336.808L265.508 441.277C269.416 448.086 269.38 456.828 273.061 463.762V463.762C274.997 467.409 278.214 470.225 282.102 471.676C285.991 473.127 290.28 473.113 294.159 471.635C298.037 470.157 301.234 467.32 303.145 463.659Z" fill="#FFB8B8"/>
<path d="M242.689 325.008L207.796 340.489C206.803 340.929 205.726 341.152 204.639 341.143C203.551 341.133 202.478 340.891 201.494 340.433C200.509 339.975 199.635 339.312 198.932 338.488C198.229 337.665 197.713 336.701 197.42 335.662L188.099 302.684C187.454 300.402 186.548 298.194 185.971 295.894C184.931 291.752 185.191 287.361 186.764 283.327C188.772 278.178 192.756 274.03 197.842 271.791C202.928 269.552 208.702 269.405 213.896 271.384C217.921 272.916 221.344 275.627 223.737 279.114C225.135 281.15 226.224 283.386 227.56 285.463L245.981 314.117C246.565 315.027 246.946 316.051 247.095 317.12C247.245 318.188 247.161 319.277 246.848 320.31C246.536 321.344 246.002 322.298 245.285 323.109C244.567 323.92 243.681 324.567 242.689 325.008Z" fill="#D7C49E"/>
<path d="M81.5395 477.33C83.9431 476.777 86.195 475.706 88.1367 474.196C90.0784 472.685 91.6626 470.77 92.7778 468.586C93.8929 466.402 94.5118 464.002 94.591 461.555V461.555C94.7419 456.894 94.3174 451.999 96.2176 447.74L146.967 333.979C151.396 324.05 145.786 312.529 135.238 309.893V309.893C126.513 307.713 117.558 312.506 114.533 320.975L74.0228 434.392C71.3724 441.812 64.6892 447.482 61.7943 454.81V454.81C60.2783 458.648 60.2338 462.904 61.6692 466.772C63.1046 470.64 65.9201 473.851 69.5824 475.797C73.2446 477.743 77.4991 478.289 81.5395 477.33Z" fill="#FFB8B8"/>
<path d="M68.1145 720.505C66.1643 725.819 68.9086 731.706 74.2329 733.629V733.629C79.0624 735.374 84.4362 733.262 86.7851 728.696L109.779 683.997C113.455 676.853 110.016 668.106 102.46 665.376V665.376C95.5664 662.886 87.956 666.434 85.4309 673.315L68.1145 720.505Z" fill="#FFB8B8"/>
<path d="M110.686 748.222C114.964 757.328 103.775 763.189 94.2882 759.762L65.5039 749.363C59.4711 747.184 56.3719 740.535 58.5816 734.513V734.513C60.7914 728.492 67.4733 725.377 73.506 727.556L97.4891 736.22C103.318 738.326 108.065 742.643 110.686 748.222V748.222Z" fill="#2F2E41"/>
<path d="M107.39 692.073C106.279 692.073 105.182 691.829 104.179 691.357L83.3777 681.582C81.6724 680.787 80.3286 679.389 79.6108 677.66C78.8929 675.932 78.8532 674 79.4993 672.244L138.203 510.948C138.69 509.613 139.548 508.441 140.678 507.57C141.808 506.698 143.164 506.163 144.589 506.025C146.014 505.888 147.449 506.154 148.727 506.794C150.005 507.433 151.074 508.419 151.811 509.637L182.86 560.982C183.551 562.126 183.923 563.432 183.937 564.766C183.952 566.099 183.608 567.412 182.942 568.571L113.989 688.297C113.321 689.447 112.359 690.401 111.2 691.064C110.042 691.727 108.727 692.075 107.39 692.073Z" fill="#2F2E41"/>
<path d="M177.975 252.25C199.287 252.25 216.564 235.108 216.564 213.962C216.564 192.816 199.287 175.674 177.975 175.674C156.663 175.674 139.386 192.816 139.386 213.962C139.386 235.108 156.663 252.25 177.975 252.25Z" fill="#FFB8B8"/>
<path d="M232.864 387.393C232.694 387.768 232.276 387.965 231.878 387.856L185.715 375.26C172.046 371.53 160.602 362.177 154.226 349.525L127.902 297.289C126.156 293.824 125.332 289.975 125.508 286.105C125.683 282.236 126.852 278.475 128.905 275.181C130.957 271.886 133.824 269.166 137.234 267.28C140.643 265.394 144.482 264.404 148.386 264.404H202.747C208.389 264.401 213.834 266.467 218.034 270.205C232.617 283.167 263.253 320.534 232.864 387.393V387.393Z" fill="#D7C49E"/>
<path d="M147.034 339.89L112.416 323.812C111.431 323.355 110.557 322.692 109.854 321.869C109.15 321.046 108.634 320.083 108.339 319.044C108.045 318.005 107.98 316.916 108.148 315.849C108.316 314.783 108.714 313.766 109.314 312.866L128.38 284.297C129.694 282.329 130.783 280.212 132.153 278.282C134.633 274.789 138.154 272.11 142.263 270.653C147.502 268.795 153.27 269.074 158.303 271.429C163.335 273.784 167.221 278.023 169.108 283.216C170.57 287.237 170.741 291.576 169.648 295.651C169.008 298.039 168.013 300.322 167.3 302.689L157.493 335.242C157.181 336.276 156.648 337.231 155.931 338.042C155.214 338.853 154.328 339.501 153.336 339.942C152.343 340.383 151.267 340.607 150.179 340.598C149.092 340.589 148.019 340.347 147.034 339.89Z" fill="#D7C49E"/>
<path d="M188.916 737.994C188.917 743.642 193.495 748.221 199.143 748.221V748.221C204.304 748.221 208.655 744.376 209.292 739.256L215.48 689.484C216.469 681.528 210.264 674.504 202.247 674.505V674.505C194.882 674.505 188.912 680.476 188.913 687.84L188.916 737.994Z" fill="#FFB8B8"/>
<path d="M238.476 749.555C245.632 756.655 237.155 765.965 227.075 765.966L196.393 765.967C189.985 765.967 184.789 760.773 184.789 754.364V754.364C184.789 747.956 189.984 742.76 196.392 742.76L221.937 742.759C228.14 742.759 234.089 745.203 238.476 749.555V749.555Z" fill="#2F2E41"/>
<path d="M196.19 720.131C194.458 720.133 192.778 719.543 191.433 718.46C190.089 717.377 189.162 715.867 188.809 714.184C183.272 688.301 154.516 555.721 132.073 487.43C109.237 417.949 148.127 386.301 156.155 380.663C157.01 380.064 157.689 379.25 158.123 378.305L163.956 365.575C164.561 364.261 165.533 363.147 166.758 362.366C167.983 361.585 169.408 361.169 170.864 361.169H170.912C214.634 361.428 229.333 375.103 233.623 380.971C234.256 381.845 234.69 382.845 234.894 383.902C235.098 384.959 235.069 386.047 234.807 387.092L207.143 500.337C206.971 501.039 206.933 501.767 207.028 502.483L234.552 708.101C234.684 709.09 234.617 710.094 234.354 711.056C234.091 712.019 233.637 712.919 233.02 713.706C232.402 714.492 231.633 715.149 230.757 715.637C229.881 716.126 228.916 716.436 227.917 716.551L197.078 720.08C196.783 720.114 196.486 720.131 196.19 720.131Z" fill="#2F2E41"/>
<path d="M137.427 189.881C144.771 194.903 153.259 197.969 162.078 198.829C163.695 198.987 164.255 201.044 162.782 201.731V201.731C161.136 202.499 161.272 205.486 163.073 205.721C174.65 207.232 186.42 206.833 197.902 204.523C201.075 204.018 204.136 202.975 206.951 201.439C208.354 200.662 209.577 199.6 210.539 198.323C211.502 197.046 212.182 195.582 212.537 194.027C213.486 188.651 209.264 183.767 204.876 180.475C198.159 175.513 190.413 172.093 182.201 170.465C173.988 168.837 165.513 169.04 157.389 171.06C152.084 172.421 146.77 174.719 143.325 178.946C141.233 181.512 140.035 184.923 140.151 188.18C140.179 188.946 138.001 190.388 137.427 189.881V189.881Z" fill="#2F2E41"/>
</svg>
