<svg width="1500" height="1000" viewBox="0 0 1500 1000" fill="none" xmlns="http://www.w3.org/2000/svg">
<rect width="1500" height="995" fill="#6A629D"/>
<path d="M771.855 994.881C748.141 999.091 724.142 1000.49 700.202 999.056C642.476 995.541 585.704 975.305 537.188 937.26C515.677 920.389 495.157 899.662 484.022 871.82C468.91 834.01 474.195 786.144 495.775 753.212C503.647 741.333 513.33 731.377 524.303 723.879C525.929 722.771 527.59 721.706 529.269 720.684C547.553 709.602 568.089 705.071 588.445 707.626C623.051 712.184 654.99 737.661 673.442 773.257C689.879 804.996 695.606 842.445 698.982 879.979C699.619 887.051 700.167 894.145 700.696 901.195C697.755 921.623 693.131 941.647 686.892 960.968C686.575 961.91 686.315 962.878 686.115 963.866C689.65 973.111 693.014 982.441 696.207 991.856C699.207 993.819 702.568 994.844 705.982 994.838H771.714L771.855 994.881Z" fill="#F2F2F2"/>
<path d="M694.846 996.689C694.41 996.924 693.94 997.051 693.463 997.065C692.986 997.078 692.511 996.976 692.067 996.766C691.623 996.556 691.218 996.241 690.876 995.84C690.534 995.439 690.261 994.961 690.074 994.431C689.791 993.622 689.526 992.812 689.243 992.003C686.698 984.547 684.029 977.163 681.237 969.849C645.484 875.47 592.156 792.297 525.398 726.795C525.015 726.471 524.712 726.03 524.519 725.516C524.327 725.003 524.252 724.437 524.303 723.877C524.4 723.235 524.616 722.628 524.935 722.1C525.254 721.573 525.668 721.14 526.145 720.832C526.623 720.525 527.152 720.352 527.693 720.326C528.234 720.3 528.773 720.421 529.269 720.681C529.535 720.827 529.785 721.013 530.012 721.235C558.574 749.273 584.776 780.631 608.24 814.857C631.708 849.051 652.372 885.905 669.942 924.902C674.732 935.553 679.28 946.353 683.587 957.302C684.436 959.475 685.284 961.669 686.115 963.863C689.65 973.108 693.014 982.438 696.207 991.854C696.26 992.003 696.313 992.173 696.367 992.322C696.529 992.726 696.619 993.166 696.629 993.614C696.639 994.062 696.57 994.507 696.426 994.921C696.282 995.334 696.067 995.706 695.794 996.01C695.522 996.316 695.198 996.547 694.846 996.689Z" fill="white"/>
<path d="M460.427 715.74C498.496 715.74 529.358 678.545 529.358 632.663C529.358 586.781 498.496 549.586 460.427 549.586C422.357 549.586 391.495 586.781 391.495 632.663C391.495 678.545 422.357 715.74 460.427 715.74Z" fill="#A559D8"/>
<path d="M1062.76 945.684C1090.37 945.684 1112.76 923.298 1112.76 895.684C1112.76 868.069 1090.37 845.684 1062.76 845.684C1035.14 845.684 1012.76 868.069 1012.76 895.684C1012.76 923.298 1035.14 945.684 1062.76 945.684Z" fill="#A559D8"/>
<path d="M453.594 664.357C452.043 664.36 450.533 663.756 449.292 662.635L449.215 662.565L433.016 647.617C432.265 646.925 431.635 646.061 431.161 645.075C430.688 644.088 430.38 642.999 430.256 641.87C430.132 640.74 430.193 639.592 430.437 638.492C430.681 637.391 431.102 636.359 431.677 635.454C432.252 634.55 432.97 633.791 433.788 633.22C434.607 632.65 435.51 632.28 436.448 632.13C437.385 631.981 438.337 632.056 439.251 632.35C440.164 632.645 441.02 633.153 441.77 633.847L452.263 643.544L477.059 604.57C477.634 603.666 478.351 602.907 479.17 602.337C479.988 601.768 480.891 601.398 481.828 601.248C482.765 601.099 483.717 601.174 484.63 601.469C485.543 601.763 486.399 602.271 487.149 602.965L486.995 603.217L487.153 602.968C488.666 604.37 489.656 606.437 489.906 608.717C490.156 610.997 489.645 613.303 488.485 615.129L459.319 660.972C458.645 662.028 457.777 662.883 456.784 663.47C455.792 664.057 454.7 664.361 453.594 664.357Z" fill="white"/>
<path d="M1497.9 999.999H2.09842C1.54132 999.998 1.00761 999.73 0.614258 999.254C0.220903 998.779 0 998.135 0 997.463C0 996.792 0.220903 996.148 0.614258 995.672C1.00761 995.197 1.54132 994.929 2.09842 994.927H1497.9C1498.46 994.929 1498.99 995.197 1499.39 995.672C1499.78 996.148 1500 996.792 1500 997.463C1500 998.135 1499.78 998.779 1499.39 999.254C1498.99 999.73 1498.46 999.998 1497.9 999.999Z" fill="#3F3D56"/>
<path d="M292.592 289.59C320.842 289.59 343.743 261.989 343.743 227.942C343.743 193.895 320.842 166.295 292.592 166.295C264.342 166.295 241.441 193.895 241.441 227.942C241.441 261.989 264.342 289.59 292.592 289.59Z" fill="#2F2E41"/>
<path d="M252.666 194.703C260.932 184.741 262.607 170.608 256.408 163.136C250.208 155.665 238.482 157.684 230.216 167.646C221.951 177.608 220.276 191.74 226.475 199.212C232.674 206.683 244.4 204.665 252.666 194.703Z" fill="#2F2E41"/>
<path d="M345.905 175.125C349.349 165.408 343.426 153.045 332.676 147.51C321.926 141.976 310.42 145.367 306.976 155.084C303.532 164.801 309.455 177.164 320.205 182.698C330.954 188.233 342.461 184.842 345.905 175.125Z" fill="#2F2E41"/>
<path d="M435.025 583.859C436.317 580.899 437.055 577.632 437.187 574.291C437.319 570.949 436.841 567.613 435.787 564.518C434.734 561.423 433.13 558.644 431.088 556.377C429.047 554.11 426.618 552.409 423.973 551.396L350.064 362.962L316.256 391.534L399.537 567.774C398.419 573.243 399.004 579.017 401.182 584C403.359 588.984 406.978 592.832 411.353 594.814C415.727 596.797 420.553 596.777 424.916 594.758C429.279 592.739 432.876 588.861 435.025 583.859Z" fill="#FFB8B8"/>
<path d="M367.014 394.396L327.761 415.551C326.644 416.153 325.433 416.458 324.209 416.444C322.986 416.431 321.779 416.1 320.671 415.474C319.564 414.848 318.581 413.942 317.79 412.817C316.999 411.692 316.419 410.375 316.088 408.955L304.513 359.209C301.99 352.304 301.842 344.476 304.101 337.441C306.36 330.405 310.842 324.736 316.563 321.677C322.285 318.618 328.78 318.417 334.624 321.121C340.468 323.824 345.184 329.209 347.738 336.096L370.718 379.514C371.375 380.757 371.803 382.157 371.971 383.617C372.139 385.078 372.045 386.565 371.693 387.977C371.342 389.39 370.742 390.694 369.934 391.802C369.127 392.909 368.131 393.794 367.014 394.396Z" fill="#CCCCCC"/>
<path d="M185.728 602.541C188.432 601.784 190.965 600.322 193.15 598.257C195.334 596.193 197.116 593.576 198.371 590.592C199.625 587.608 200.322 584.328 200.411 580.985C200.5 577.641 199.979 574.314 198.886 571.239L268.883 380.647L228.841 368.492L172.628 559.66C168.463 562.215 165.221 566.523 163.516 571.768C161.81 577.012 161.76 582.827 163.375 588.113C164.99 593.399 168.157 597.787 172.277 600.446C176.397 603.105 181.183 603.85 185.728 602.541Z" fill="#FFB8B8"/>
<path d="M166.647 948.001L187.009 956.935L225.294 866.534L195.242 853.349L166.647 948.001Z" fill="#FFB8B8"/>
<path d="M219.393 996.954L155.4 968.873L164.402 939.075L203.67 956.307C210.228 959.184 215.568 965.083 218.516 972.706C221.465 980.329 221.78 989.051 219.393 996.954Z" fill="#2F2E41"/>
<path d="M214.809 895.979C213.56 895.98 212.326 895.646 211.197 895.002L187.796 881.644C185.878 880.558 184.366 878.647 183.559 876.285C182.751 873.924 182.707 871.284 183.433 868.885L249.473 648.478C250.02 646.653 250.985 645.052 252.257 643.861C253.528 642.671 255.054 641.939 256.657 641.751C258.259 641.564 259.873 641.928 261.311 642.801C262.749 643.674 263.952 645.022 264.781 646.686L299.71 716.848C300.487 718.411 300.905 720.196 300.922 722.018C300.938 723.84 300.551 725.635 299.802 727.218L222.233 890.82C221.481 892.391 220.399 893.695 219.095 894.601C217.792 895.507 216.314 895.982 214.809 895.979Z" fill="#2F2E41"/>
<path d="M294.214 294.975C318.189 294.975 337.625 271.551 337.625 242.655C337.625 213.76 318.189 190.336 294.214 190.336C270.239 190.336 250.803 213.76 250.803 242.655C250.803 271.551 270.239 294.975 294.214 294.975Z" fill="#FFB8B8"/>
<path d="M355.629 480.535L278.765 455.059L237.884 356.519C235.92 351.786 234.993 346.525 235.19 341.238C235.388 335.95 236.703 330.812 239.012 326.31C241.321 321.807 244.546 318.091 248.382 315.514C252.217 312.937 256.536 311.584 260.927 311.584H322.081C328.429 311.579 334.554 314.402 339.279 319.511C355.683 337.223 390.148 388.284 355.961 479.644L355.629 480.535Z" fill="#CCCCCC"/>
<path d="M259.406 414.731L220.463 392.762C219.355 392.137 218.372 391.231 217.58 390.107C216.789 388.982 216.208 387.665 215.876 386.246C215.545 384.826 215.472 383.338 215.661 381.881C215.85 380.424 216.298 379.034 216.973 377.804L240.641 334.726C243.327 327.912 248.145 322.66 254.039 320.121C259.933 317.583 266.422 317.964 272.083 321.182C277.745 324.4 282.116 330.192 284.239 337.289C286.362 344.385 286.064 352.207 283.41 359.039L271.172 408.38C270.821 409.793 270.222 411.098 269.415 412.206C268.608 413.314 267.612 414.2 266.496 414.803C265.379 415.405 264.168 415.711 262.945 415.699C261.721 415.686 260.514 415.357 259.406 414.731Z" fill="#CCCCCC"/>
<path d="M306.523 972.705H328.19L338.5 871.973L306.518 871.975L306.523 972.705Z" fill="#FFB8B8"/>
<path d="M369.982 996.952L301.88 996.956L301.879 965.244L343.669 965.242C350.648 965.242 357.34 968.582 362.275 974.529C367.21 980.476 369.982 988.542 369.982 996.952Z" fill="#2F2E41"/>
<path d="M314.704 934.32C312.756 934.324 310.866 933.518 309.354 932.037C307.841 930.557 306.798 928.494 306.401 926.195C300.173 890.826 267.824 709.659 242.575 616.341C216.887 521.398 260.636 478.152 269.667 470.448C270.629 469.629 271.393 468.517 271.881 467.226L278.443 449.831C279.123 448.035 280.217 446.512 281.595 445.445C282.973 444.377 284.576 443.81 286.214 443.81H286.268C335.454 444.164 351.989 462.85 356.815 470.869C357.527 472.063 358.015 473.43 358.245 474.874C358.475 476.318 358.442 477.805 358.147 479.232L327.026 633.979C326.833 634.939 326.79 635.933 326.897 636.912L357.86 917.883C358.009 919.233 357.933 920.606 357.637 921.921C357.341 923.236 356.831 924.466 356.136 925.541C355.442 926.616 354.576 927.513 353.591 928.18C352.605 928.848 351.52 929.272 350.397 929.428L315.704 934.251C315.372 934.298 315.038 934.321 314.704 934.32Z" fill="#2F2E41"/>
<path d="M248.6 209.749C258.52 217.99 270.294 222.375 282.342 222.317C278.044 225.908 273.152 228.334 268.001 229.428C284.02 233.569 300.575 233.681 316.632 229.757C320.201 229.067 323.644 227.642 326.812 225.543C328.39 224.481 329.765 223.03 330.848 221.285C331.931 219.54 332.696 217.54 333.096 215.415C334.162 208.069 329.413 201.395 324.477 196.897C316.92 190.115 308.207 185.443 298.968 183.218C289.729 180.993 280.195 181.271 271.056 184.031C265.089 185.89 259.111 189.031 255.235 194.807C251.359 200.583 250.211 209.487 253.903 215.435L248.6 209.749Z" fill="#2F2E41"/>
<path d="M1045.46 436.69C1058.15 436.69 1068.44 424.292 1068.44 408.998C1068.44 393.704 1058.15 381.306 1045.46 381.306C1032.77 381.306 1022.48 393.704 1022.48 408.998C1022.48 424.292 1032.77 436.69 1045.46 436.69Z" fill="#A559D8"/>
<path d="M1043.18 419.561C1042.67 419.562 1042.16 419.361 1041.75 418.987L1041.72 418.964L1036.32 413.981C1036.07 413.751 1035.86 413.463 1035.7 413.134C1035.54 412.805 1035.44 412.442 1035.4 412.065C1035.36 411.688 1035.38 411.305 1035.46 410.937C1035.54 410.57 1035.68 410.225 1035.87 409.923C1036.07 409.621 1036.3 409.368 1036.58 409.178C1036.85 408.988 1037.15 408.864 1037.47 408.815C1037.78 408.765 1038.1 408.791 1038.4 408.89C1038.71 408.989 1038.99 409.159 1039.24 409.391L1042.74 412.623L1051 399.632C1051.2 399.331 1051.44 399.078 1051.71 398.888C1051.98 398.698 1052.28 398.575 1052.59 398.525C1052.91 398.475 1053.22 398.5 1053.53 398.598C1053.83 398.696 1054.12 398.866 1054.37 399.097C1054.87 399.564 1055.2 400.254 1055.29 401.014C1055.37 401.774 1055.2 402.543 1054.81 403.152L1045.09 418.433C1044.87 418.785 1044.58 419.07 1044.25 419.265C1043.92 419.461 1043.55 419.562 1043.18 419.561Z" fill="white"/>
<path d="M1045.46 517.634C1058.15 517.634 1068.44 505.236 1068.44 489.941C1068.44 474.647 1058.15 462.249 1045.46 462.249C1032.77 462.249 1022.48 474.647 1022.48 489.941C1022.48 505.236 1032.77 517.634 1045.46 517.634Z" fill="#A559D8"/>
<path d="M1043.18 500.504C1042.67 500.506 1042.16 500.304 1041.75 499.93L1041.72 499.907L1036.32 494.924C1036.07 494.694 1035.86 494.406 1035.7 494.077C1035.54 493.748 1035.44 493.385 1035.4 493.008C1035.36 492.631 1035.38 492.248 1035.46 491.88C1035.54 491.513 1035.68 491.168 1035.87 490.867C1036.07 490.565 1036.3 490.311 1036.58 490.121C1036.85 489.931 1037.15 489.808 1037.47 489.758C1037.78 489.709 1038.1 489.734 1038.4 489.833C1038.71 489.932 1038.99 490.102 1039.24 490.334L1042.74 493.567L1051 480.575C1051.2 480.274 1051.44 480.021 1051.71 479.831C1051.98 479.641 1052.28 479.518 1052.59 479.468C1052.91 479.419 1053.22 479.443 1053.53 479.542C1053.83 479.64 1054.12 479.809 1054.37 480.04C1054.87 480.507 1055.2 481.198 1055.29 481.958C1055.37 482.718 1055.2 483.486 1054.81 484.095L1045.09 499.376C1044.87 499.728 1044.58 500.013 1044.25 500.209C1043.92 500.404 1043.55 500.506 1043.18 500.504Z" fill="white"/>
<path d="M1057.83 611.363C1070.52 611.363 1080.81 598.965 1080.81 583.671C1080.81 568.377 1070.52 555.979 1057.83 555.979C1045.14 555.979 1034.86 568.377 1034.86 583.671C1034.86 598.965 1045.14 611.363 1057.83 611.363Z" fill="#A559D8"/>
<path d="M1055.56 594.233C1055.04 594.234 1054.54 594.033 1054.12 593.659L1054.1 593.636L1048.7 588.653C1048.45 588.422 1048.23 588.135 1048.08 587.806C1047.92 587.477 1047.81 587.114 1047.77 586.737C1047.73 586.36 1047.75 585.976 1047.83 585.609C1047.91 585.242 1048.05 584.897 1048.25 584.595C1048.44 584.293 1048.68 584.04 1048.95 583.85C1049.22 583.66 1049.53 583.536 1049.84 583.487C1050.15 583.437 1050.47 583.463 1050.77 583.562C1051.08 583.66 1051.36 583.831 1051.61 584.063L1055.11 587.295L1063.38 574.304C1063.57 574.003 1063.81 573.75 1064.08 573.56C1064.35 573.37 1064.66 573.246 1064.97 573.197C1065.28 573.147 1065.6 573.172 1065.9 573.27C1066.21 573.368 1066.49 573.538 1066.74 573.769C1067.25 574.236 1067.58 574.926 1067.66 575.686C1067.74 576.446 1067.57 577.215 1067.19 577.824L1057.46 593.105C1057.24 593.457 1056.95 593.742 1056.62 593.937C1056.29 594.133 1055.92 594.234 1055.56 594.233Z" fill="white"/>
<path d="M1279.4 814.879C1279.16 814.879 1279.01 814.872 1278.96 814.868L1250.43 814.872V809.803H1279.06C1279.72 809.831 1293.25 810.292 1305.71 792.069C1324.27 764.911 1339.52 697.682 1306.72 531.625C1262.61 308.337 1299.4 111.076 1317.26 36.6292C1318.14 32.946 1318.3 29.0666 1317.72 25.2975C1317.14 21.5284 1315.85 17.9728 1313.93 14.9117C1312.02 11.8506 1309.54 9.36791 1306.69 7.65972C1303.85 5.95153 1300.71 5.06469 1297.53 5.06924H871.508C868.269 5.07448 865.077 6.00003 862.19 7.77082C859.304 9.5416 856.804 12.1077 854.895 15.2608C847.327 27.8076 836.941 51.911 830.442 95.4942L826.303 94.5982C832.942 50.0682 843.666 25.2557 851.493 12.2807C853.793 8.4813 856.804 5.38921 860.282 3.25542C863.76 1.12164 867.606 0.0063109 871.508 1.37964e-05H1297.53C1301.36 -0.0044312 1305.14 1.06527 1308.57 3.12459C1312 5.18392 1314.99 8.17646 1317.3 11.8658C1319.6 15.5551 1321.16 19.8401 1321.86 24.3823C1322.56 28.9244 1322.36 33.5993 1321.3 38.0376C1303.53 112.098 1266.93 308.336 1310.81 530.451C1344.08 698.844 1328.08 767.53 1308.81 795.499C1296.1 813.945 1282.09 814.879 1279.4 814.879Z" fill="#E6E6E6"/>
<path d="M1202.64 907.394C1202.4 907.394 1202.25 907.387 1202.2 907.383L1173.67 907.387V902.318H1202.3C1202.96 902.342 1216.48 902.806 1228.95 884.584C1247.51 857.426 1262.76 790.196 1229.96 624.139C1185.85 400.852 1222.64 203.59 1240.5 129.144C1241.38 125.461 1241.54 121.581 1240.96 117.812C1240.38 114.043 1239.09 110.487 1237.17 107.426C1235.26 104.365 1232.78 101.883 1229.93 100.174C1227.09 98.4662 1223.95 97.5794 1220.77 97.5839H794.748C791.509 97.5892 788.316 98.5147 785.43 100.285C782.543 102.056 780.044 104.622 778.134 107.775C770.566 120.322 760.181 144.426 753.682 188.009L749.542 187.113C756.182 142.583 766.906 117.77 774.732 104.795C777.033 100.996 780.044 97.9039 783.521 95.7701C786.999 93.6363 790.845 92.521 794.748 92.5147H1220.77C1224.6 92.5102 1228.38 93.5799 1231.81 95.6393C1235.24 97.6986 1238.23 100.691 1240.54 104.38C1242.84 108.07 1244.4 112.355 1245.1 116.897C1245.79 121.439 1245.6 126.114 1244.54 130.552C1226.77 204.612 1190.17 400.851 1234.05 622.966C1267.32 791.358 1251.32 860.045 1232.05 888.013C1219.34 906.46 1205.33 907.394 1202.64 907.394Z" fill="#CCCCCC"/>
<path d="M1157.29 715.484C1113.4 493.37 1150.01 297.116 1167.79 223.071C1168.85 218.632 1169.03 213.958 1168.34 209.417C1167.64 204.875 1166.08 200.591 1163.77 196.902C1161.47 193.213 1158.48 190.22 1155.05 188.159C1151.63 186.098 1147.85 185.025 1144.01 185.025H717.983C714.082 185.03 710.237 186.144 706.761 188.275C703.284 190.407 700.274 193.498 697.975 197.295C680.777 225.797 645.092 320.313 684.949 581.836C706.264 721.747 705.946 817.136 698.983 879.977C695.076 915.359 689.049 940.41 683.587 957.302L683.005 959.092C681.854 962.51 681.254 966.161 681.237 969.849C681.197 974.014 681.89 978.142 683.27 981.961C684.65 985.779 686.686 989.202 689.243 992.003C690.911 993.887 692.799 995.465 694.846 996.689C696.546 997.735 698.344 998.529 700.202 999.054C702.094 999.611 704.035 999.889 705.982 999.885H1125.44C1125.49 999.885 1125.63 999.906 1125.88 999.906C1128.57 999.906 1142.58 998.969 1155.29 980.521C1174.56 952.552 1190.55 883.875 1157.29 715.484ZM1152.18 977.092C1139.72 995.326 1126.2 994.857 1125.54 994.836H705.982C702.623 994.835 699.315 993.842 696.348 991.945C693.381 990.047 690.844 987.303 688.96 983.951C687.303 981.053 686.19 977.755 685.699 974.285C685.207 970.816 685.349 967.26 686.115 963.863C686.315 962.876 686.575 961.908 686.893 960.966C693.131 941.645 697.756 921.621 700.697 901.193C710.665 835.69 712.521 734.613 689.085 580.92C649.529 321.336 684.507 228.247 701.368 200.278C703.281 197.129 705.782 194.567 708.668 192.798C711.554 191.029 714.745 190.103 717.983 190.095H1144.01C1147.19 190.093 1150.33 190.98 1153.17 192.688C1156.02 194.397 1158.5 196.878 1160.41 199.938C1162.32 202.997 1163.62 206.55 1164.2 210.317C1164.77 214.084 1164.62 217.962 1163.74 221.643C1145.87 296.093 1109.09 493.37 1153.21 716.655C1186.01 882.703 1170.76 949.932 1152.18 977.092Z" fill="#CCCCCC"/>
<path d="M954.894 426.889H735.398C730.936 426.889 726.657 424.753 723.502 420.951C720.347 417.148 718.574 411.99 718.574 406.613C718.574 401.235 720.347 396.078 723.502 392.275C726.657 388.472 730.936 386.336 735.398 386.336H954.894C959.356 386.336 963.635 388.472 966.791 392.275C969.946 396.078 971.718 401.235 971.718 406.613C971.718 411.99 969.946 417.148 966.791 420.951C963.635 424.753 959.356 426.889 954.894 426.889Z" fill="#CCCCCC"/>
<path d="M954.894 514.225H735.398C730.936 514.225 726.657 512.089 723.502 508.287C720.347 504.484 718.574 499.326 718.574 493.949C718.574 488.571 720.347 483.413 723.502 479.611C726.657 475.808 730.936 473.672 735.398 473.672H954.894C959.356 473.672 963.635 475.808 966.791 479.611C969.946 483.413 971.718 488.571 971.718 493.949C971.718 499.326 969.946 504.484 966.791 508.287C963.635 512.089 959.356 514.225 954.894 514.225Z" fill="#CCCCCC"/>
<path d="M972.569 603.695H753.073C748.611 603.695 744.332 601.559 741.177 597.756C738.022 593.954 736.249 588.796 736.249 583.418C736.249 578.041 738.022 572.883 741.177 569.081C744.332 565.278 748.611 563.142 753.073 563.142H972.569C977.031 563.142 981.31 565.278 984.465 569.081C987.62 572.883 989.393 578.041 989.393 583.418C989.393 588.796 987.62 593.954 984.465 597.756C981.31 601.559 977.031 603.695 972.569 603.695Z" fill="#CCCCCC"/>
<path d="M984.941 697.424H765.445C760.983 697.424 756.704 695.287 753.549 691.485C750.394 687.682 748.621 682.525 748.621 677.147C748.621 671.769 750.394 666.612 753.549 662.809C756.704 659.006 760.983 656.87 765.445 656.87H984.941C989.403 656.87 993.682 659.006 996.837 662.809C999.993 666.612 1001.77 671.769 1001.77 677.147C1001.77 682.525 999.993 687.682 996.837 691.485C993.682 695.287 989.403 697.424 984.941 697.424Z" fill="#CCCCCC"/>
<path d="M985.033 269.446H827.306C825.095 269.449 822.906 268.926 820.863 267.909C818.819 266.891 816.963 265.398 815.399 263.515C813.835 261.631 812.594 259.395 811.747 256.934C810.901 254.472 810.465 251.834 810.465 249.169C810.465 246.505 810.901 243.866 811.747 241.405C812.594 238.944 813.835 236.707 815.399 234.824C816.963 232.941 818.819 231.448 820.863 230.43C822.906 229.412 825.095 228.89 827.306 228.893H985.033C989.496 228.893 993.775 231.029 996.93 234.832C1000.09 238.634 1001.86 243.792 1001.86 249.169C1001.86 254.547 1000.09 259.705 996.93 263.507C993.775 267.31 989.496 269.446 985.033 269.446Z" fill="#A559D8"/>
<path d="M1071.97 704.838C1084.66 704.838 1094.95 692.44 1094.95 677.146C1094.95 661.851 1084.66 649.453 1071.97 649.453C1059.28 649.453 1049 661.851 1049 677.146C1049 692.44 1059.28 704.838 1071.97 704.838Z" fill="#CCCCCC"/>
<path d="M995.546 789.02H776.051C771.589 789.02 767.309 786.884 764.154 783.081C760.999 779.279 759.227 774.121 759.227 768.744C759.227 763.366 760.999 758.208 764.154 754.406C767.309 750.603 771.589 748.467 776.051 748.467H995.546C1000.01 748.467 1004.29 750.603 1007.44 754.406C1010.6 758.208 1012.37 763.366 1012.37 768.744C1012.37 774.121 1010.6 779.279 1007.44 783.081C1004.29 786.884 1000.01 789.02 995.546 789.02Z" fill="#CCCCCC"/>
<path d="M1082.58 796.435C1095.27 796.435 1105.55 784.036 1105.55 768.742C1105.55 753.448 1095.27 741.05 1082.58 741.05C1069.89 741.05 1059.6 753.448 1059.6 768.742C1059.6 784.036 1069.89 796.435 1082.58 796.435Z" fill="#CCCCCC"/>
<path d="M1058.18 914.023V876.523H1064.55V914.023H1058.18ZM1042.61 898.455V892.091H1080.11V898.455H1042.61Z" fill="white"/>
</svg>
